{"title":"Red Riding Hood 2011 R5 XviD-BiDA","uid":6419199,"size":736264992,"categoryP":"video","categoryS":"movies","magnet":"?xt=urn:btih:4146f390ea4db54eaeb73bf5725dd87a315e382b&amp;dn=Red+Riding+Hood+2011+R5+XviD-BiDA&amp;tr=udp%3A%2F%2Ftracker.openbittorrent.com%3A80&amp;tr=udp%3A%2F%2Fopen.demonii.com%3A1337&amp;tr=udp%3A%2F%2Ftracker.coppersurfer.tk%3A6969&amp;tr=udp%3A%2F%2Fexodus.desync.com%3A6969","seeders":0,"leechers":1,"uploader":"SAFCukO09","files":2,"time":1306257578,"description":"\nIMDB = http://www.imdb.com/title/tt1486185/\n\nFormat                           : AVI\nFormat/Info                      : Audio Video Interleave\nFile size                        : 702 MiB\nDuration                         : 1h 39mn\nOverall bit rate                 : 984 Kbps\nWriting application              : MEncoder SVN-r1.0~rc3+svn20090426-4.4.3\nWriting library                  : VirtualDub build 32842/release\n\nVideo\nID                               : 0\nFormat                           : MPEG-4 Visual\nFormat profile                   : Advanced Simple@L5\nFormat settings, BVOP            : Yes\nFormat settings, QPel            : No\nFormat settings, GMC             : No warppoints\nFormat settings, Matrix          : Custom\nCodec ID                         : XVID\nCodec ID/Hint                    : XviD\nDuration                         : 1h 39mn\nBit rate                         : 850 Kbps\nWidth                            : 640 pixels\nHeight                           : 272 pixels\nDisplay aspect ratio             : 2.35:1\nFrame rate                       : 24.000 fps\nOriginal frame rate              : 25.000 fps\nResolution                       : 8 bits\nColorimetry                      : 4:2:0\nScan type                        : Progressive\nBits/(Pixel*Frame)               : 0.204\nStream size                      : 607 MiB (86%)\nWriting library                  : XviD 58\n\nAudio\nID                               : 1\nFormat                           : MPEG Audio\nFormat version                   : Version 1\nFormat profile                   : Layer 3\nCodec ID                         : 55\nCodec ID/Hint                    : MP3\nDuration                         : 1h 35mn\nBit rate mode                    : Constant\nBit rate                         : 128 Kbps\nChannel(s)                       : 2 channels\nSampling rate                    : 44.1 KHz\nVideo delay                      : 2s 508ms\nStream size                      : 87.2 MiB (12%)\nAlignment                        : Split accross interleaves\nInterleave, duration             : 27 ms (0.66 video frame)\nInterleave, preload duration     : 1440 ms\n","torrent":{"xt":"urn:btih:4146f390ea4db54eaeb73bf5725dd87a315e382b","amp;dn":"Red+Riding+Hood+2011+R5+XviD-BiDA","amp;tr":["udp%3A%2F%2Ftracker.openbittorrent.com%3A80","udp%3A%2F%2Fopen.demonii.com%3A1337","udp%3A%2F%2Ftracker.coppersurfer.tk%3A6969","udp%3A%2F%2Fexodus.desync.com%3A6969"],"infoHash":"4146f390ea4db54eaeb73bf5725dd87a315e382b","infoHashBuffer":{"type":"Buffer","data":[65,70,243,144,234,77,181,78,174,183,59,245,114,93,216,122,49,94,56,43]},"announce":[],"urlList":[]}}